<svg xmlns="http://www.w3.org/2000/svg" id="svg1901" viewBox="0 0 426.73 746.26" version="1.0"><g id="layer1" transform="translate(579.31 268.72)"><g id="g3243"><path id="path3217" style="fill-rule:evenodd;stroke:#000;stroke-width:10px;fill:#ececec" d="M-367.54-263.72C-398.33-239.22-635-33.83-455.73 359.5h179.25c179.27-393.33-57.39-598.69-88.19-623.19l-2.87-.03z"/><path id="path3219" style="fill:#ccc" d="M-360.12-9.075c-37.29 0-67.62 30.363-67.62 67.656 0 37.294 30.33 67.629 67.62 67.629 37.3 0 67.66-30.335 67.66-67.629 0-37.293-30.36-67.656-67.66-67.656zm0 8c32.97 0 59.66 26.691 59.66 59.656s-26.69 59.629-59.66 59.629c-32.96 0-59.62-26.664-59.62-59.629s26.66-59.656 59.62-59.656z"/><path id="path2419" style="fill-rule:evenodd;stroke:#000;stroke-width:1px;fill:red" d="m-486.89-102.24 43.43-79.8 60.61-68.69 17.17-13.14 64.65 67.68 50.51 81.83 4.04 17.169-241.42-1.011"/><path id="path2408" style="fill-rule:evenodd;stroke:#000;stroke-width:10px;fill:red" d="M-511.14 201.81s-107.07-1.33-42.42 270.72c0 0 6.06-227.16 62.63-199.15"/><path id="path2410" style="fill-rule:evenodd;stroke:#000;stroke-width:10px;fill:red" d="M-220.76 201.81s107.08-1.33 42.43 270.72c0 0-6.06-227.16-62.63-199.15"/><path id="path2423" style="fill-rule:evenodd;stroke:#000;stroke-width:1px;fill:#b3b3b3" d="m-481.84 303.84 26.26 55.56 179.81-1.01 21.21-54.55h-227.28z"/><path id="path3209" style="fill-rule:evenodd;fill:#d20000" d="m-195.97 229.09-20.2 50.51-12.12-10.11-14.15 6.06 19.2-75.76 34.34 17.18s59.6 41.41 13.13 247.48c27.28-213.14-21.21-235.36-20.2-235.36z"/><path id="path3213" style="fill-rule:evenodd;fill:#d20000" d="M-556.59 469.5s-10.06-220.36 58.58-221.22c7.58-.09 7.08 24.24 7.08 24.24l-27.28 6.07-21.21 66.67-17.17 124.24z"/><path id="path3232" style="fill-rule:evenodd;fill:#999" d="M-320.44 303.84c4.06 12.21 6.45 29.25 5.28 53.54.87.3 1.78.73 2.72 1.21l36.66-.21 17.09-43.94c-.69-3.76-1.48-7.11-2.25-10.6h-59.5z"/><path id="path3227" style="fill-rule:evenodd;fill:#ccc" d="M-346.47 197.2c-6.82-.51-11.12.56-11.12.56l-5.06 77.78s24.33-4.8 35.81 28.31h59.62c-19.36-90.3-59.66-105.2-79.25-106.65z"/><path id="path3241" style="fill-rule:evenodd;fill:#ccc" d="m-479 308.36 20 50 28 2-8-57-40 5z"/><path id="path2382" style="stroke:#000;stroke-width:10px;fill:none" d="M-367.54-263.72C-398.33-239.22-635-33.83-455.73 359.5h179.25c179.27-393.33-57.39-598.69-88.19-623.19l-2.87-.03z"/><path id="path2394" style="stroke:#000;stroke-width:10px;fill:none" d="M-486.89-100.22h237.38"/><path id="path2400" style="stroke:#000;stroke-linecap:round;stroke-width:8px;fill:#b3b3b3" d="M-233.35 70.494a63.64 63.64 0 1 1-127.27 0 63.64 63.64 0 1 1 127.27 0z" transform="translate(-69.118 -17.919)"/><path id="path2402" style="stroke:#000;stroke-linecap:round;stroke-width:12.293px;fill:#80e5ff" d="M-233.35 70.494a63.64 63.64 0 1 1-127.27 0 63.64 63.64 0 1 1 127.27 0z" transform="translate(-172.83 6.698) scale(.65079)"/><path id="path2417" style="stroke:#000;stroke-width:10px;fill:none" d="M-478.81 304.85h224.25"/><path id="rect2414" style="stroke:#000;stroke-linecap:round;stroke-width:10px;fill:red" d="M-375.19 199.79h18.18v272.74h-18.18V199.79z"/><path id="path2425" style="fill-rule:evenodd;fill:#ccc" d="M-264.66 291.72s80.81-185.87 16.16-364.67c3.03 317.19-83.84 364.67-83.84 364.67h67.68z"/><path id="rect2429" style="fill:#fff" transform="scale(.99545 1.00452) rotate(45)" d="M-240.61 254.63h34.47v83.714h-34.47z"/><path id="path2431" style="stroke:#000;stroke-linecap:round;stroke-width:12.293px;fill:none" d="M-233.35 70.494a63.64 63.64 0 1 1-127.27 0 63.64 63.64 0 1 1 127.27 0z" transform="translate(-172.83 6.698) scale(.65079)"/><path id="path2437" style="fill-rule:evenodd;fill:#d20000" d="M-273.75-115.37s-31.32-81.83-90.92-125.26c54.55 105.05 26.27 125.26 26.27 125.26h64.65z"/><path id="path3211" style="stroke:#000;stroke-width:10px;fill:none" d="M-220.76 201.81s107.08-1.33 42.43 270.72c0 0-6.06-227.16-62.63-199.15"/><path id="path3215" style="stroke:#000;stroke-width:10px;fill:none" d="M-511.14 201.81s-107.07-1.33-42.42 270.72c0 0 6.06-227.16 62.63-199.15"/><path id="path3237" style="fill-rule:evenodd;fill:#fff" d="M-472.75-118.4s53.54-104.05 97.98-131.32c44.45-27.28-96.97 133.34-97.98 131.32z"/><path id="path3239" style="fill-rule:evenodd;fill:#fff" d="M-504.29 158.08c-3.16-1.76-22.72-145.96 25.72-235.72 29.87-24.04 70.5-11.395 68.57-1.426-16.73 86.35-75.47 247.59-94.29 237.15z"/></g></g></svg>